<mxfile host="app.diagrams.net" modified="2024-07-08T14:25:28.317Z" agent="Mozilla/5.0 (Windows NT 10.0; Win64; x64) AppleWebKit/537.36 (KHTML, like Gecko) Chrome/126.0.0.0 Safari/537.36" etag="FS_QfE58GEwhSh0AH1iw" version="24.6.4" type="device">
  <diagram name="Page-1" id="0783ab3e-0a74-02c8-0abd-f7b4e66b4bec">
    <mxGraphModel dx="2390" dy="1230" grid="1" gridSize="10" guides="1" tooltips="1" connect="1" arrows="1" fold="1" page="1" pageScale="1" pageWidth="850" pageHeight="1100" background="none" math="0" shadow="0">
      <root>
        <mxCell id="0" />
        <mxCell id="1" parent="0" />
        <mxCell id="1c1d494c118603dd-1" value="Library System - Emprestar Livro" style="swimlane;html=1;childLayout=stackLayout;startSize=20;rounded=0;shadow=0;comic=0;labelBackgroundColor=none;strokeWidth=1;fontFamily=Verdana;fontSize=12;align=center;" parent="1" vertex="1">
          <mxGeometry width="720" height="740" as="geometry" />
        </mxCell>
        <mxCell id="6MT8BEEm58CrdeI0F6Hf-2" style="edgeStyle=orthogonalEdgeStyle;rounded=0;orthogonalLoop=1;jettySize=auto;html=1;exitX=1;exitY=0.5;exitDx=0;exitDy=0;entryX=0;entryY=0.5;entryDx=0;entryDy=0;" parent="1c1d494c118603dd-1" source="60571a20871a0731-8" target="6MT8BEEm58CrdeI0F6Hf-1" edge="1">
          <mxGeometry relative="1" as="geometry" />
        </mxCell>
        <mxCell id="6MT8BEEm58CrdeI0F6Hf-7" style="edgeStyle=orthogonalEdgeStyle;rounded=0;orthogonalLoop=1;jettySize=auto;html=1;exitX=1;exitY=0.5;exitDx=0;exitDy=0;entryX=0;entryY=0.5;entryDx=0;entryDy=0;" parent="1c1d494c118603dd-1" source="6MT8BEEm58CrdeI0F6Hf-3" target="6MT8BEEm58CrdeI0F6Hf-6" edge="1">
          <mxGeometry relative="1" as="geometry" />
        </mxCell>
        <mxCell id="6MT8BEEm58CrdeI0F6Hf-8" style="edgeStyle=orthogonalEdgeStyle;rounded=0;orthogonalLoop=1;jettySize=auto;html=1;exitX=1;exitY=0.5;exitDx=0;exitDy=0;entryX=0;entryY=0.5;entryDx=0;entryDy=0;" parent="1c1d494c118603dd-1" source="6MT8BEEm58CrdeI0F6Hf-1" target="6MT8BEEm58CrdeI0F6Hf-5" edge="1">
          <mxGeometry relative="1" as="geometry" />
        </mxCell>
        <mxCell id="6MT8BEEm58CrdeI0F6Hf-10" style="edgeStyle=orthogonalEdgeStyle;rounded=0;orthogonalLoop=1;jettySize=auto;html=1;exitX=1;exitY=0.5;exitDx=0;exitDy=0;entryX=0.998;entryY=0.503;entryDx=0;entryDy=0;entryPerimeter=0;endArrow=none;endFill=0;" parent="1c1d494c118603dd-1" source="6MT8BEEm58CrdeI0F6Hf-6" target="6MT8BEEm58CrdeI0F6Hf-9" edge="1">
          <mxGeometry relative="1" as="geometry">
            <Array as="points">
              <mxPoint x="680" y="125" />
              <mxPoint x="680" y="171" />
            </Array>
          </mxGeometry>
        </mxCell>
        <mxCell id="6MT8BEEm58CrdeI0F6Hf-11" style="edgeStyle=orthogonalEdgeStyle;rounded=0;orthogonalLoop=1;jettySize=auto;html=1;exitX=1;exitY=0.5;exitDx=0;exitDy=0;entryX=0.998;entryY=0.503;entryDx=0;entryDy=0;entryPerimeter=0;endArrow=none;endFill=0;" parent="1c1d494c118603dd-1" source="6MT8BEEm58CrdeI0F6Hf-5" target="6MT8BEEm58CrdeI0F6Hf-9" edge="1">
          <mxGeometry relative="1" as="geometry">
            <Array as="points">
              <mxPoint x="690" y="85" />
              <mxPoint x="690" y="171" />
            </Array>
          </mxGeometry>
        </mxCell>
        <mxCell id="6MT8BEEm58CrdeI0F6Hf-12" style="edgeStyle=orthogonalEdgeStyle;rounded=0;orthogonalLoop=1;jettySize=auto;html=1;exitX=0.5;exitY=1;exitDx=0;exitDy=0;entryX=0.002;entryY=0.503;entryDx=0;entryDy=0;entryPerimeter=0;startArrow=classic;startFill=1;endArrow=none;endFill=0;" parent="1c1d494c118603dd-1" source="60571a20871a0731-8" target="6MT8BEEm58CrdeI0F6Hf-9" edge="1">
          <mxGeometry relative="1" as="geometry" />
        </mxCell>
        <mxCell id="6MT8BEEm58CrdeI0F6Hf-17" style="edgeStyle=orthogonalEdgeStyle;rounded=0;orthogonalLoop=1;jettySize=auto;html=1;exitX=0;exitY=0.5;exitDx=0;exitDy=0;entryX=1;entryY=0.5;entryDx=0;entryDy=0;" parent="1c1d494c118603dd-1" source="6MT8BEEm58CrdeI0F6Hf-14" target="6MT8BEEm58CrdeI0F6Hf-18" edge="1">
          <mxGeometry relative="1" as="geometry">
            <mxPoint x="190" y="205" as="targetPoint" />
          </mxGeometry>
        </mxCell>
        <mxCell id="1c1d494c118603dd-2" value="Usuario" style="swimlane;html=1;startSize=20;" parent="1c1d494c118603dd-1" vertex="1">
          <mxGeometry y="20" width="240" height="720" as="geometry" />
        </mxCell>
        <mxCell id="60571a20871a0731-4" value="" style="ellipse;whiteSpace=wrap;html=1;rounded=0;shadow=0;comic=0;labelBackgroundColor=none;strokeWidth=1;fillColor=#000000;fontFamily=Verdana;fontSize=12;align=center;" parent="1c1d494c118603dd-2" vertex="1">
          <mxGeometry x="20" y="40" width="50" height="50" as="geometry" />
        </mxCell>
        <mxCell id="60571a20871a0731-8" value="Login" style="rounded=1;whiteSpace=wrap;html=1;shadow=0;comic=0;labelBackgroundColor=none;strokeWidth=1;fontFamily=Verdana;fontSize=12;align=center;arcSize=50;" parent="1c1d494c118603dd-2" vertex="1">
          <mxGeometry x="110" y="50" width="100" height="30" as="geometry" />
        </mxCell>
        <mxCell id="1c1d494c118603dd-27" style="edgeStyle=orthogonalEdgeStyle;rounded=0;html=1;labelBackgroundColor=none;startArrow=none;startFill=0;startSize=5;endArrow=classicThin;endFill=1;endSize=5;jettySize=auto;orthogonalLoop=1;strokeWidth=1;fontFamily=Verdana;fontSize=12;entryX=0;entryY=0.5;entryDx=0;entryDy=0;" parent="1c1d494c118603dd-2" source="60571a20871a0731-4" target="60571a20871a0731-8" edge="1">
          <mxGeometry relative="1" as="geometry" />
        </mxCell>
        <mxCell id="6MT8BEEm58CrdeI0F6Hf-18" value="Listagem de Livros" style="rounded=1;whiteSpace=wrap;html=1;shadow=0;comic=0;labelBackgroundColor=none;strokeWidth=1;fontFamily=Verdana;fontSize=12;align=center;arcSize=50;" parent="1c1d494c118603dd-2" vertex="1">
          <mxGeometry x="45" y="170" width="150" height="30" as="geometry" />
        </mxCell>
        <mxCell id="JtFaLPs-1PDjHstrPCpa-27" style="edgeStyle=orthogonalEdgeStyle;rounded=0;orthogonalLoop=1;jettySize=auto;html=1;exitX=0.5;exitY=1;exitDx=0;exitDy=0;entryX=0.5;entryY=0;entryDx=0;entryDy=0;" parent="1c1d494c118603dd-2" source="JtFaLPs-1PDjHstrPCpa-24" target="JtFaLPs-1PDjHstrPCpa-26" edge="1">
          <mxGeometry relative="1" as="geometry" />
        </mxCell>
        <mxCell id="JtFaLPs-1PDjHstrPCpa-24" value="Selecionar Livro" style="rounded=1;whiteSpace=wrap;html=1;shadow=0;comic=0;labelBackgroundColor=none;strokeWidth=1;fontFamily=Verdana;fontSize=12;align=center;arcSize=50;" parent="1c1d494c118603dd-2" vertex="1">
          <mxGeometry x="55" y="245" width="130" height="30" as="geometry" />
        </mxCell>
        <mxCell id="JtFaLPs-1PDjHstrPCpa-26" value="Clicar em Alterar Status" style="rounded=1;whiteSpace=wrap;html=1;shadow=0;comic=0;labelBackgroundColor=none;strokeWidth=1;fontFamily=Verdana;fontSize=12;align=center;arcSize=50;" parent="1c1d494c118603dd-2" vertex="1">
          <mxGeometry x="37.5" y="300" width="165" height="30" as="geometry" />
        </mxCell>
        <mxCell id="JtFaLPs-1PDjHstrPCpa-30" value="Pesquisar o Usuario pelo ID" style="rounded=1;whiteSpace=wrap;html=1;shadow=0;comic=0;labelBackgroundColor=none;strokeWidth=1;fontFamily=Verdana;fontSize=12;align=center;arcSize=50;" parent="1c1d494c118603dd-2" vertex="1">
          <mxGeometry x="50" y="360" width="140" height="40" as="geometry" />
        </mxCell>
        <mxCell id="7HCiQlnG-SN_sCBw3lYu-17" value="" style="edgeStyle=orthogonalEdgeStyle;rounded=0;orthogonalLoop=1;jettySize=auto;html=1;" edge="1" parent="1c1d494c118603dd-2" source="7HCiQlnG-SN_sCBw3lYu-7" target="7HCiQlnG-SN_sCBw3lYu-11">
          <mxGeometry relative="1" as="geometry" />
        </mxCell>
        <mxCell id="7HCiQlnG-SN_sCBw3lYu-7" value="Confirmar se é o usuário" style="rounded=1;whiteSpace=wrap;html=1;shadow=0;comic=0;labelBackgroundColor=none;strokeWidth=1;fontFamily=Verdana;fontSize=12;align=center;arcSize=50;" vertex="1" parent="1c1d494c118603dd-2">
          <mxGeometry x="35" y="460" width="170" height="30" as="geometry" />
        </mxCell>
        <mxCell id="7HCiQlnG-SN_sCBw3lYu-16" value="" style="edgeStyle=orthogonalEdgeStyle;rounded=0;orthogonalLoop=1;jettySize=auto;html=1;" edge="1" parent="1c1d494c118603dd-2" source="7HCiQlnG-SN_sCBw3lYu-10" target="7HCiQlnG-SN_sCBw3lYu-11">
          <mxGeometry relative="1" as="geometry" />
        </mxCell>
        <mxCell id="7HCiQlnG-SN_sCBw3lYu-10" value="Preencher campo&lt;div&gt;Data Emprestimo&lt;/div&gt;" style="rounded=1;whiteSpace=wrap;html=1;shadow=0;comic=0;labelBackgroundColor=none;strokeWidth=1;fontFamily=Verdana;fontSize=12;align=center;arcSize=50;" vertex="1" parent="1c1d494c118603dd-2">
          <mxGeometry x="35" y="520" width="170" height="40" as="geometry" />
        </mxCell>
        <mxCell id="7HCiQlnG-SN_sCBw3lYu-11" value="Clicar em Emprestar" style="rounded=1;whiteSpace=wrap;html=1;shadow=0;comic=0;labelBackgroundColor=none;strokeWidth=1;fontFamily=Verdana;fontSize=12;align=center;arcSize=50;" vertex="1" parent="1c1d494c118603dd-2">
          <mxGeometry x="35" y="590" width="170" height="30" as="geometry" />
        </mxCell>
        <mxCell id="60571a20871a0731-5" value="" style="shape=mxgraph.bpmn.shape;html=1;verticalLabelPosition=bottom;labelBackgroundColor=#ffffff;verticalAlign=top;perimeter=ellipsePerimeter;outline=end;symbol=terminate;rounded=0;shadow=0;comic=0;strokeWidth=1;fontFamily=Verdana;fontSize=12;align=center;" parent="1c1d494c118603dd-2" vertex="1">
          <mxGeometry x="152.5" y="645" width="50" height="50" as="geometry" />
        </mxCell>
        <mxCell id="JtFaLPs-1PDjHstrPCpa-22" style="edgeStyle=orthogonalEdgeStyle;rounded=0;orthogonalLoop=1;jettySize=auto;html=1;exitX=0.5;exitY=1;exitDx=0;exitDy=0;entryX=1;entryY=0.5;entryDx=0;entryDy=0;" parent="1c1d494c118603dd-1" source="JtFaLPs-1PDjHstrPCpa-20" target="JtFaLPs-1PDjHstrPCpa-23" edge="1">
          <mxGeometry relative="1" as="geometry">
            <mxPoint x="460" y="280" as="targetPoint" />
            <Array as="points">
              <mxPoint x="600" y="280" />
            </Array>
          </mxGeometry>
        </mxCell>
        <mxCell id="JtFaLPs-1PDjHstrPCpa-25" style="edgeStyle=orthogonalEdgeStyle;rounded=0;orthogonalLoop=1;jettySize=auto;html=1;exitX=0;exitY=0.5;exitDx=0;exitDy=0;entryX=1;entryY=0.5;entryDx=0;entryDy=0;" parent="1c1d494c118603dd-1" source="JtFaLPs-1PDjHstrPCpa-23" target="JtFaLPs-1PDjHstrPCpa-24" edge="1">
          <mxGeometry relative="1" as="geometry" />
        </mxCell>
        <mxCell id="JtFaLPs-1PDjHstrPCpa-21" style="edgeStyle=orthogonalEdgeStyle;rounded=0;orthogonalLoop=1;jettySize=auto;html=1;exitX=0.5;exitY=1;exitDx=0;exitDy=0;entryX=0;entryY=0.5;entryDx=0;entryDy=0;" parent="1c1d494c118603dd-1" source="6MT8BEEm58CrdeI0F6Hf-18" target="JtFaLPs-1PDjHstrPCpa-20" edge="1">
          <mxGeometry relative="1" as="geometry">
            <mxPoint x="520" y="240" as="targetPoint" />
            <mxPoint x="114.99000000000001" y="220" as="sourcePoint" />
            <Array as="points">
              <mxPoint x="120" y="240" />
            </Array>
          </mxGeometry>
        </mxCell>
        <mxCell id="JtFaLPs-1PDjHstrPCpa-51" style="edgeStyle=orthogonalEdgeStyle;rounded=0;orthogonalLoop=1;jettySize=auto;html=1;exitX=1;exitY=0.5;exitDx=0;exitDy=0;entryX=0;entryY=0.5;entryDx=0;entryDy=0;" parent="1c1d494c118603dd-1" source="JtFaLPs-1PDjHstrPCpa-26" target="JtFaLPs-1PDjHstrPCpa-28" edge="1">
          <mxGeometry relative="1" as="geometry" />
        </mxCell>
        <mxCell id="JtFaLPs-1PDjHstrPCpa-53" style="edgeStyle=orthogonalEdgeStyle;rounded=0;orthogonalLoop=1;jettySize=auto;html=1;exitX=0;exitY=0.5;exitDx=0;exitDy=0;entryX=1;entryY=0.5;entryDx=0;entryDy=0;" parent="1c1d494c118603dd-1" source="JtFaLPs-1PDjHstrPCpa-29" target="JtFaLPs-1PDjHstrPCpa-30" edge="1">
          <mxGeometry relative="1" as="geometry" />
        </mxCell>
        <mxCell id="7HCiQlnG-SN_sCBw3lYu-3" style="edgeStyle=orthogonalEdgeStyle;rounded=0;orthogonalLoop=1;jettySize=auto;html=1;exitX=0.5;exitY=1;exitDx=0;exitDy=0;entryX=0;entryY=0.5;entryDx=0;entryDy=0;" edge="1" parent="1c1d494c118603dd-1" source="JtFaLPs-1PDjHstrPCpa-30" target="7HCiQlnG-SN_sCBw3lYu-2">
          <mxGeometry relative="1" as="geometry" />
        </mxCell>
        <mxCell id="1c1d494c118603dd-3" value="Sistema" style="swimlane;html=1;startSize=20;" parent="1c1d494c118603dd-1" vertex="1">
          <mxGeometry x="240" y="20" width="240" height="720" as="geometry" />
        </mxCell>
        <mxCell id="6MT8BEEm58CrdeI0F6Hf-4" style="edgeStyle=orthogonalEdgeStyle;rounded=0;orthogonalLoop=1;jettySize=auto;html=1;exitX=0.25;exitY=1;exitDx=0;exitDy=0;entryX=0;entryY=0.5;entryDx=0;entryDy=0;" parent="1c1d494c118603dd-3" source="6MT8BEEm58CrdeI0F6Hf-1" target="6MT8BEEm58CrdeI0F6Hf-3" edge="1">
          <mxGeometry relative="1" as="geometry">
            <Array as="points">
              <mxPoint x="74" y="105" />
            </Array>
          </mxGeometry>
        </mxCell>
        <mxCell id="6MT8BEEm58CrdeI0F6Hf-1" value="Conferir credencial" style="rounded=1;whiteSpace=wrap;html=1;shadow=0;comic=0;labelBackgroundColor=none;strokeWidth=1;fontFamily=Verdana;fontSize=12;align=center;arcSize=50;" parent="1c1d494c118603dd-3" vertex="1">
          <mxGeometry x="42.5" y="50" width="155" height="30" as="geometry" />
        </mxCell>
        <mxCell id="6MT8BEEm58CrdeI0F6Hf-3" value="Criptografia" style="rounded=1;whiteSpace=wrap;html=1;shadow=0;comic=0;labelBackgroundColor=none;strokeWidth=1;fontFamily=Verdana;fontSize=12;align=center;arcSize=50;" parent="1c1d494c118603dd-3" vertex="1">
          <mxGeometry x="100" y="90" width="115" height="30" as="geometry" />
        </mxCell>
        <mxCell id="6MT8BEEm58CrdeI0F6Hf-9" value="" style="html=1;whiteSpace=wrap;aspect=fixed;shape=isoRectangle;" parent="1c1d494c118603dd-3" vertex="1">
          <mxGeometry x="102.5" y="140" width="35" height="21" as="geometry" />
        </mxCell>
        <mxCell id="6MT8BEEm58CrdeI0F6Hf-13" value="Não" style="text;html=1;align=center;verticalAlign=middle;whiteSpace=wrap;rounded=0;" parent="1c1d494c118603dd-3" vertex="1">
          <mxGeometry x="69" y="140" width="36" height="10" as="geometry" />
        </mxCell>
        <mxCell id="6MT8BEEm58CrdeI0F6Hf-14" value="Menu" style="rounded=1;whiteSpace=wrap;html=1;shadow=0;comic=0;labelBackgroundColor=none;strokeWidth=1;fontFamily=Verdana;fontSize=12;align=center;arcSize=50;" parent="1c1d494c118603dd-3" vertex="1">
          <mxGeometry x="35" y="170" width="70" height="30" as="geometry" />
        </mxCell>
        <mxCell id="6MT8BEEm58CrdeI0F6Hf-15" style="edgeStyle=orthogonalEdgeStyle;rounded=0;orthogonalLoop=1;jettySize=auto;html=1;exitX=1;exitY=0.5;exitDx=0;exitDy=0;entryX=0.504;entryY=0.984;entryDx=0;entryDy=0;entryPerimeter=0;startArrow=classic;startFill=1;endArrow=none;endFill=0;" parent="1c1d494c118603dd-3" source="6MT8BEEm58CrdeI0F6Hf-14" target="6MT8BEEm58CrdeI0F6Hf-9" edge="1">
          <mxGeometry relative="1" as="geometry" />
        </mxCell>
        <mxCell id="6MT8BEEm58CrdeI0F6Hf-16" value="Sim" style="text;html=1;align=center;verticalAlign=middle;whiteSpace=wrap;rounded=0;" parent="1c1d494c118603dd-3" vertex="1">
          <mxGeometry x="125" y="170" width="31" height="10" as="geometry" />
        </mxCell>
        <mxCell id="6MT8BEEm58CrdeI0F6Hf-19" value="Corresponde?" style="text;html=1;align=center;verticalAlign=middle;whiteSpace=wrap;rounded=0;" parent="1c1d494c118603dd-3" vertex="1">
          <mxGeometry x="140" y="140" width="90.5" height="10" as="geometry" />
        </mxCell>
        <mxCell id="JtFaLPs-1PDjHstrPCpa-23" value="Retornar dados" style="rounded=1;whiteSpace=wrap;html=1;shadow=0;comic=0;labelBackgroundColor=none;strokeWidth=1;fontFamily=Verdana;fontSize=12;align=center;arcSize=50;" parent="1c1d494c118603dd-3" vertex="1">
          <mxGeometry x="62.5" y="245" width="115" height="30" as="geometry" />
        </mxCell>
        <mxCell id="JtFaLPs-1PDjHstrPCpa-52" style="edgeStyle=orthogonalEdgeStyle;rounded=0;orthogonalLoop=1;jettySize=auto;html=1;exitX=0.5;exitY=1;exitDx=0;exitDy=0;entryX=0.5;entryY=0;entryDx=0;entryDy=0;" parent="1c1d494c118603dd-3" source="JtFaLPs-1PDjHstrPCpa-28" target="JtFaLPs-1PDjHstrPCpa-29" edge="1">
          <mxGeometry relative="1" as="geometry" />
        </mxCell>
        <mxCell id="JtFaLPs-1PDjHstrPCpa-28" value="Abrir Alterar Status" style="rounded=1;whiteSpace=wrap;html=1;shadow=0;comic=0;labelBackgroundColor=none;strokeWidth=1;fontFamily=Verdana;fontSize=12;align=center;arcSize=50;" parent="1c1d494c118603dd-3" vertex="1">
          <mxGeometry x="35" y="300" width="170" height="30" as="geometry" />
        </mxCell>
        <mxCell id="JtFaLPs-1PDjHstrPCpa-29" value="Preencher com os dados do livro selecionado" style="rounded=1;whiteSpace=wrap;html=1;shadow=0;comic=0;labelBackgroundColor=none;strokeWidth=1;fontFamily=Verdana;fontSize=12;align=center;arcSize=50;" parent="1c1d494c118603dd-3" vertex="1">
          <mxGeometry x="40" y="360" width="160" height="40" as="geometry" />
        </mxCell>
        <mxCell id="7HCiQlnG-SN_sCBw3lYu-6" value="Preencher campo nome" style="rounded=1;whiteSpace=wrap;html=1;shadow=0;comic=0;labelBackgroundColor=none;strokeWidth=1;fontFamily=Verdana;fontSize=12;align=center;arcSize=50;" vertex="1" parent="1c1d494c118603dd-3">
          <mxGeometry x="40" y="460" width="160" height="30" as="geometry" />
        </mxCell>
        <mxCell id="7HCiQlnG-SN_sCBw3lYu-14" style="edgeStyle=orthogonalEdgeStyle;rounded=0;orthogonalLoop=1;jettySize=auto;html=1;exitX=0.75;exitY=1;exitDx=0;exitDy=0;" edge="1" parent="1c1d494c118603dd-3" source="7HCiQlnG-SN_sCBw3lYu-12" target="7HCiQlnG-SN_sCBw3lYu-13">
          <mxGeometry relative="1" as="geometry">
            <Array as="points">
              <mxPoint x="166" y="560" />
            </Array>
          </mxGeometry>
        </mxCell>
        <mxCell id="7HCiQlnG-SN_sCBw3lYu-12" value="Conferir se o livro&lt;div&gt;pode ser emprestado&lt;/div&gt;" style="rounded=1;whiteSpace=wrap;html=1;shadow=0;comic=0;labelBackgroundColor=none;strokeWidth=1;fontFamily=Verdana;fontSize=12;align=center;arcSize=50;" vertex="1" parent="1c1d494c118603dd-3">
          <mxGeometry x="30" y="520" width="176.25" height="40" as="geometry" />
        </mxCell>
        <mxCell id="7HCiQlnG-SN_sCBw3lYu-20" value="" style="edgeStyle=orthogonalEdgeStyle;rounded=0;orthogonalLoop=1;jettySize=auto;html=1;" edge="1" parent="1c1d494c118603dd-3" source="7HCiQlnG-SN_sCBw3lYu-13" target="7HCiQlnG-SN_sCBw3lYu-19">
          <mxGeometry relative="1" as="geometry">
            <Array as="points">
              <mxPoint x="113" y="611" />
            </Array>
          </mxGeometry>
        </mxCell>
        <mxCell id="7HCiQlnG-SN_sCBw3lYu-13" value="" style="html=1;whiteSpace=wrap;aspect=fixed;shape=isoRectangle;" vertex="1" parent="1c1d494c118603dd-3">
          <mxGeometry x="148.5" y="600" width="35" height="21" as="geometry" />
        </mxCell>
        <mxCell id="7HCiQlnG-SN_sCBw3lYu-15" value="Sim" style="text;html=1;align=center;verticalAlign=middle;whiteSpace=wrap;rounded=0;" vertex="1" parent="1c1d494c118603dd-3">
          <mxGeometry x="185" y="599" width="31" height="10" as="geometry" />
        </mxCell>
        <mxCell id="7HCiQlnG-SN_sCBw3lYu-19" value="Mensagem de Erro" style="rounded=1;whiteSpace=wrap;html=1;shadow=0;comic=0;labelBackgroundColor=none;strokeWidth=1;fontFamily=Verdana;fontSize=12;align=center;arcSize=50;" vertex="1" parent="1c1d494c118603dd-3">
          <mxGeometry x="20" y="590.5" width="85" height="40" as="geometry" />
        </mxCell>
        <mxCell id="7HCiQlnG-SN_sCBw3lYu-21" value="Não" style="text;html=1;align=center;verticalAlign=middle;whiteSpace=wrap;rounded=0;" vertex="1" parent="1c1d494c118603dd-3">
          <mxGeometry x="117.5" y="599" width="31" height="10" as="geometry" />
        </mxCell>
        <mxCell id="7HCiQlnG-SN_sCBw3lYu-29" value="Mensagem de livro emprestado com sucesso" style="rounded=1;whiteSpace=wrap;html=1;shadow=0;comic=0;labelBackgroundColor=none;strokeWidth=1;fontFamily=Verdana;fontSize=12;align=center;arcSize=50;" vertex="1" parent="1c1d494c118603dd-3">
          <mxGeometry x="30" y="650" width="180" height="40" as="geometry" />
        </mxCell>
        <mxCell id="1c1d494c118603dd-4" value="Base de dados" style="swimlane;html=1;startSize=20;" parent="1c1d494c118603dd-1" vertex="1">
          <mxGeometry x="480" y="20" width="240" height="720" as="geometry">
            <mxRectangle x="500" y="20" width="40" height="970" as="alternateBounds" />
          </mxGeometry>
        </mxCell>
        <mxCell id="6MT8BEEm58CrdeI0F6Hf-5" value="Usuario" style="rounded=1;whiteSpace=wrap;html=1;shadow=0;comic=0;labelBackgroundColor=none;strokeWidth=1;fontFamily=Verdana;fontSize=12;align=center;arcSize=50;" parent="1c1d494c118603dd-4" vertex="1">
          <mxGeometry x="62.5" y="50" width="115" height="30" as="geometry" />
        </mxCell>
        <mxCell id="6MT8BEEm58CrdeI0F6Hf-6" value="Senha" style="rounded=1;whiteSpace=wrap;html=1;shadow=0;comic=0;labelBackgroundColor=none;strokeWidth=1;fontFamily=Verdana;fontSize=12;align=center;arcSize=50;" parent="1c1d494c118603dd-4" vertex="1">
          <mxGeometry x="62.5" y="90" width="115" height="30" as="geometry" />
        </mxCell>
        <mxCell id="JtFaLPs-1PDjHstrPCpa-20" value="Acessar a listagem de Livros" style="rounded=1;whiteSpace=wrap;html=1;shadow=0;comic=0;labelBackgroundColor=none;strokeWidth=1;fontFamily=Verdana;fontSize=12;align=center;arcSize=50;" parent="1c1d494c118603dd-4" vertex="1">
          <mxGeometry x="55" y="200" width="130" height="40" as="geometry" />
        </mxCell>
        <mxCell id="7HCiQlnG-SN_sCBw3lYu-5" value="" style="edgeStyle=orthogonalEdgeStyle;rounded=0;orthogonalLoop=1;jettySize=auto;html=1;" edge="1" parent="1c1d494c118603dd-4" source="7HCiQlnG-SN_sCBw3lYu-2" target="7HCiQlnG-SN_sCBw3lYu-4">
          <mxGeometry relative="1" as="geometry" />
        </mxCell>
        <mxCell id="7HCiQlnG-SN_sCBw3lYu-2" value="Encontrar o Usuário pelo Id" style="rounded=1;whiteSpace=wrap;html=1;shadow=0;comic=0;labelBackgroundColor=none;strokeWidth=1;fontFamily=Verdana;fontSize=12;align=center;arcSize=50;" vertex="1" parent="1c1d494c118603dd-4">
          <mxGeometry x="50" y="400" width="140" height="40" as="geometry" />
        </mxCell>
        <mxCell id="7HCiQlnG-SN_sCBw3lYu-4" value="Retornar o Nome" style="rounded=1;whiteSpace=wrap;html=1;shadow=0;comic=0;labelBackgroundColor=none;strokeWidth=1;fontFamily=Verdana;fontSize=12;align=center;arcSize=50;" vertex="1" parent="1c1d494c118603dd-4">
          <mxGeometry x="50" y="460" width="140" height="30" as="geometry" />
        </mxCell>
        <mxCell id="7HCiQlnG-SN_sCBw3lYu-31" style="edgeStyle=orthogonalEdgeStyle;rounded=0;orthogonalLoop=1;jettySize=auto;html=1;exitX=0.5;exitY=1;exitDx=0;exitDy=0;entryX=0.5;entryY=0;entryDx=0;entryDy=0;" edge="1" parent="1c1d494c118603dd-4" source="7HCiQlnG-SN_sCBw3lYu-22" target="7HCiQlnG-SN_sCBw3lYu-30">
          <mxGeometry relative="1" as="geometry" />
        </mxCell>
        <mxCell id="7HCiQlnG-SN_sCBw3lYu-22" value="Novo Emprestimo" style="whiteSpace=wrap;html=1;align=center;" vertex="1" parent="1c1d494c118603dd-4">
          <mxGeometry x="55" y="520" width="130" height="40" as="geometry" />
        </mxCell>
        <mxCell id="7HCiQlnG-SN_sCBw3lYu-27" value="Alterar Status do livro" style="whiteSpace=wrap;html=1;align=center;" vertex="1" parent="1c1d494c118603dd-4">
          <mxGeometry x="55" y="650" width="130" height="40" as="geometry" />
        </mxCell>
        <mxCell id="7HCiQlnG-SN_sCBw3lYu-32" style="edgeStyle=orthogonalEdgeStyle;rounded=0;orthogonalLoop=1;jettySize=auto;html=1;exitX=0.5;exitY=1;exitDx=0;exitDy=0;entryX=0.5;entryY=0;entryDx=0;entryDy=0;" edge="1" parent="1c1d494c118603dd-4" source="7HCiQlnG-SN_sCBw3lYu-30" target="7HCiQlnG-SN_sCBw3lYu-27">
          <mxGeometry relative="1" as="geometry" />
        </mxCell>
        <mxCell id="7HCiQlnG-SN_sCBw3lYu-30" value="Colocar Devolução como&lt;div&gt;14 dias a mais que&amp;nbsp;&lt;div&gt;Data Emprestimo&lt;/div&gt;&lt;/div&gt;" style="rounded=1;whiteSpace=wrap;html=1;shadow=0;comic=0;labelBackgroundColor=none;strokeWidth=1;fontFamily=Verdana;fontSize=12;align=center;arcSize=50;" vertex="1" parent="1c1d494c118603dd-4">
          <mxGeometry x="25" y="580" width="190" height="50" as="geometry" />
        </mxCell>
        <mxCell id="JtFaLPs-1PDjHstrPCpa-55" value="Se não&lt;div&gt;encontrar exibir:&lt;div&gt;&quot;Não Encontrado&quot;&lt;/div&gt;&lt;/div&gt;" style="shape=note;whiteSpace=wrap;html=1;rounded=0;shadow=0;comic=0;labelBackgroundColor=none;strokeWidth=1;fontFamily=Verdana;fontSize=12;align=center;size=20;" parent="1c1d494c118603dd-4" vertex="1">
          <mxGeometry x="90" y="310" width="125" height="60" as="geometry" />
        </mxCell>
        <mxCell id="7HCiQlnG-SN_sCBw3lYu-35" style="rounded=0;orthogonalLoop=1;jettySize=auto;html=1;exitX=0.5;exitY=0;exitDx=0;exitDy=0;entryX=0.5;entryY=1;entryDx=0;entryDy=0;entryPerimeter=0;dashed=1;endArrow=none;endFill=0;" edge="1" parent="1c1d494c118603dd-4" source="7HCiQlnG-SN_sCBw3lYu-2" target="JtFaLPs-1PDjHstrPCpa-55">
          <mxGeometry relative="1" as="geometry" />
        </mxCell>
        <mxCell id="7HCiQlnG-SN_sCBw3lYu-8" value="" style="edgeStyle=orthogonalEdgeStyle;rounded=0;orthogonalLoop=1;jettySize=auto;html=1;" edge="1" parent="1c1d494c118603dd-1" source="7HCiQlnG-SN_sCBw3lYu-4" target="7HCiQlnG-SN_sCBw3lYu-6">
          <mxGeometry relative="1" as="geometry" />
        </mxCell>
        <mxCell id="7HCiQlnG-SN_sCBw3lYu-9" value="" style="edgeStyle=orthogonalEdgeStyle;rounded=0;orthogonalLoop=1;jettySize=auto;html=1;" edge="1" parent="1c1d494c118603dd-1" source="7HCiQlnG-SN_sCBw3lYu-6" target="7HCiQlnG-SN_sCBw3lYu-7">
          <mxGeometry relative="1" as="geometry" />
        </mxCell>
        <mxCell id="7HCiQlnG-SN_sCBw3lYu-18" style="edgeStyle=orthogonalEdgeStyle;rounded=0;orthogonalLoop=1;jettySize=auto;html=1;exitX=1;exitY=0.5;exitDx=0;exitDy=0;entryX=0;entryY=0.5;entryDx=0;entryDy=0;" edge="1" parent="1c1d494c118603dd-1" source="7HCiQlnG-SN_sCBw3lYu-11" target="7HCiQlnG-SN_sCBw3lYu-12">
          <mxGeometry relative="1" as="geometry">
            <Array as="points">
              <mxPoint x="220" y="625" />
              <mxPoint x="220" y="560" />
            </Array>
          </mxGeometry>
        </mxCell>
        <mxCell id="7HCiQlnG-SN_sCBw3lYu-25" style="edgeStyle=orthogonalEdgeStyle;rounded=0;orthogonalLoop=1;jettySize=auto;html=1;exitX=0;exitY=0.5;exitDx=0;exitDy=0;entryX=0.995;entryY=0.498;entryDx=0;entryDy=0;entryPerimeter=0;endArrow=none;endFill=0;startArrow=classic;startFill=1;" edge="1" parent="1c1d494c118603dd-1" source="7HCiQlnG-SN_sCBw3lYu-22" target="7HCiQlnG-SN_sCBw3lYu-13">
          <mxGeometry relative="1" as="geometry">
            <Array as="points">
              <mxPoint x="470" y="560" />
              <mxPoint x="470" y="631" />
            </Array>
          </mxGeometry>
        </mxCell>
        <mxCell id="7HCiQlnG-SN_sCBw3lYu-33" style="edgeStyle=orthogonalEdgeStyle;rounded=0;orthogonalLoop=1;jettySize=auto;html=1;exitX=0;exitY=0.5;exitDx=0;exitDy=0;entryX=1;entryY=0.5;entryDx=0;entryDy=0;" edge="1" parent="1c1d494c118603dd-1" source="7HCiQlnG-SN_sCBw3lYu-27" target="7HCiQlnG-SN_sCBw3lYu-29">
          <mxGeometry relative="1" as="geometry" />
        </mxCell>
        <mxCell id="7HCiQlnG-SN_sCBw3lYu-34" style="edgeStyle=orthogonalEdgeStyle;rounded=0;orthogonalLoop=1;jettySize=auto;html=1;exitX=0;exitY=0.5;exitDx=0;exitDy=0;entryX=1;entryY=0.5;entryDx=0;entryDy=0;" edge="1" parent="1c1d494c118603dd-1" source="7HCiQlnG-SN_sCBw3lYu-29" target="60571a20871a0731-5">
          <mxGeometry relative="1" as="geometry">
            <mxPoint x="180" y="690" as="targetPoint" />
          </mxGeometry>
        </mxCell>
      </root>
    </mxGraphModel>
  </diagram>
</mxfile>
